<svg width="221" height="233" viewBox="0 0 221 233" fill="none" xmlns="http://www.w3.org/2000/svg">
<g filter="url(#filter0_d_1_12)">
<path d="M87.7878 160.375L93.8612 195.93L107.4 217.314L122.331 226.677L139.665 229.967L151.812 220.604V200.485V195.93L163.833 175.306L167.629 169.738L172.816 164.551L180.282 142.661L185.849 125.453L199.767 115.077L211.535 106.726L216.596 94.1995L219 89.0117V72.1832L209.131 77.7505L204.449 80.6607L196.098 77.7505H185.849H175.6L172.816 72.1832L167.629 60.0362V47.8893L163.833 39.0322L157.886 32.5791L151.812 26.5056L139.665 17.6485L127.012 13.473C127.012 13.473 119.876 14.0851 115.371 13.473C110.69 12.8369 102.339 17.2689 103.731 10.1832C105.122 3.09747 93.8612 13.9791 93.8612 5.50155C93.8612 -2.976 84.2966 3.21701 78.0449 2.71788C72.7745 2.29709 69.7847 2.41551 64.5061 2.71788C56.783 3.16029 52.2893 3.23219 44.8939 5.50155C40.3407 6.89872 42.8694 10.1832 33.6327 10.1832L21.9918 21.3179L12.249 32.5791L7.06122 46.4975L2 64.2118V77.7505L4.78367 94.1995L12.249 110.522L19.2082 117.987H28.5714H36.0367H49.5755L61.2163 115.077L69.5674 106.726L87.7878 103.942L93.8612 120.771L90.1918 138.991L87.7878 160.375Z" fill="#1BB169"/>
<path d="M87.7878 160.375L93.8612 195.93L107.4 217.314L122.331 226.677L139.665 229.967L151.812 220.604V200.485V195.93L163.833 175.306L167.629 169.738L172.816 164.551L180.282 142.661L185.849 125.453L199.767 115.077L211.535 106.726L216.596 94.1995L219 89.0117V72.1832L209.131 77.7505L204.449 80.6607L196.098 77.7505H185.849H175.6L172.816 72.1832L167.629 60.0362V47.8893L163.833 39.0322L157.886 32.5791L151.812 26.5056L139.665 17.6485L127.012 13.473C127.012 13.473 119.876 14.0851 115.371 13.473C110.69 12.8369 102.339 17.2689 103.731 10.1832C105.122 3.09747 93.8612 13.9791 93.8612 5.50155C93.8612 -2.976 84.2966 3.21701 78.0449 2.71788C72.7745 2.29709 69.7847 2.41551 64.5061 2.71788C56.783 3.16029 52.2893 3.23219 44.8939 5.50155C40.3407 6.89872 42.8694 10.1832 33.6327 10.1832L21.9918 21.3179L12.249 32.5791L7.06122 46.4975L2 64.2118V77.7505L4.78367 94.1995L12.249 110.522L19.2082 117.987H28.5714H36.0367H49.5755L61.2163 115.077L69.5674 106.726L87.7878 103.942L93.8612 120.771L90.1918 138.991L87.7878 160.375Z" stroke="black" stroke-width="0.253061"/>
</g>
<path d="M107.868 109.115L108.624 111.82H111.257L107.094 98.8663H104.825L100.581 111.82H103.215L103.98 109.115H107.868ZM104.594 106.989L105.955 102.22L107.281 106.989H104.594ZM120.048 106.144V104.169H114.728V100.904H120.92V98.8663H112.219V111.82H120.946V109.8H114.728V106.144H120.048ZM127.05 106.98L129.487 111.82H132.165V111.704L129.381 106.357C129.737 106.197 130.057 106.007 130.342 105.788C130.632 105.569 130.881 105.311 131.089 105.014C131.291 104.723 131.445 104.394 131.551 104.026C131.664 103.653 131.721 103.235 131.721 102.772C131.721 102.131 131.608 101.568 131.382 101.082C131.163 100.595 130.849 100.189 130.439 99.8628C130.024 99.5366 129.526 99.2904 128.945 99.1243C128.364 98.9523 127.714 98.8663 126.996 98.8663H122.655V111.82H125.155V106.98H127.05ZM125.155 104.952V100.895H126.996C127.34 100.895 127.646 100.936 127.913 101.019C128.18 101.102 128.405 101.221 128.589 101.375C128.796 101.547 128.951 101.767 129.052 102.034C129.158 102.295 129.212 102.597 129.212 102.941C129.212 103.226 129.17 103.484 129.087 103.715C129.01 103.946 128.894 104.145 128.74 104.311C128.556 104.519 128.316 104.679 128.02 104.792C127.729 104.898 127.391 104.952 127.005 104.952H125.155ZM142.272 106.295V104.409C142.272 103.822 142.216 103.267 142.103 102.745C141.997 102.223 141.839 101.743 141.632 101.304C141.442 100.919 141.214 100.566 140.947 100.245C140.686 99.925 140.38 99.6522 140.03 99.4268C139.68 99.1896 139.286 99.0087 138.847 98.8841C138.414 98.7536 137.949 98.6884 137.45 98.6884C136.958 98.6884 136.501 98.7507 136.08 98.8752C135.659 98.9998 135.28 99.1777 134.941 99.409C134.597 99.6463 134.292 99.931 134.025 100.263C133.764 100.595 133.542 100.966 133.358 101.375C133.168 101.808 133.023 102.28 132.922 102.79C132.827 103.3 132.78 103.84 132.78 104.409V106.295C132.78 106.829 132.821 107.336 132.904 107.816C132.993 108.297 133.121 108.742 133.287 109.151C133.471 109.596 133.699 109.996 133.972 110.352C134.245 110.702 134.553 111.001 134.897 111.251C135.247 111.488 135.635 111.672 136.062 111.802C136.49 111.933 136.955 111.998 137.459 111.998C137.934 111.998 138.376 111.939 138.785 111.82C139.2 111.707 139.58 111.547 139.924 111.339C140.303 111.102 140.641 110.806 140.938 110.45C141.234 110.094 141.484 109.702 141.685 109.275C141.875 108.848 142.02 108.386 142.121 107.888C142.222 107.383 142.272 106.853 142.272 106.295ZM139.737 104.391V106.295C139.737 106.615 139.719 106.924 139.683 107.22C139.654 107.517 139.606 107.79 139.541 108.039C139.458 108.359 139.345 108.647 139.203 108.902C139.067 109.151 138.898 109.358 138.696 109.525C138.536 109.661 138.352 109.765 138.144 109.836C137.937 109.907 137.708 109.943 137.459 109.943C137.198 109.943 136.964 109.904 136.756 109.827C136.555 109.75 136.374 109.64 136.214 109.498C136.042 109.338 135.89 109.13 135.76 108.875C135.635 108.614 135.541 108.326 135.475 108.012C135.416 107.763 135.374 107.493 135.351 107.203C135.327 106.912 135.315 106.609 135.315 106.295V104.391C135.315 104.059 135.327 103.742 135.351 103.439C135.38 103.137 135.425 102.858 135.484 102.603C135.561 102.271 135.668 101.98 135.804 101.731C135.947 101.482 136.119 101.274 136.32 101.108C136.469 100.996 136.635 100.91 136.819 100.85C137.008 100.791 137.219 100.761 137.45 100.761C137.694 100.761 137.913 100.794 138.109 100.859C138.31 100.924 138.491 101.016 138.651 101.135C138.853 101.295 139.028 101.503 139.176 101.758C139.325 102.007 139.443 102.292 139.532 102.612C139.603 102.867 139.654 103.146 139.683 103.448C139.719 103.745 139.737 104.059 139.737 104.391ZM146.881 98.8663H143.776V111.82H146.072V107.985L145.965 102.167L147.486 107.55H148.723L150.422 101.927L150.315 107.985V111.82H152.611V98.8663H149.506L148.109 103.733L146.881 98.8663ZM160.76 109.115L161.517 111.82H164.15L159.986 98.8663H157.718L153.474 111.82H156.107L156.873 109.115H160.76ZM157.486 106.989L158.848 102.22L160.173 106.989H157.486ZM167.629 107.069H169.56C170.265 107.069 170.903 106.968 171.472 106.767C172.042 106.565 172.528 106.283 172.931 105.921C173.329 105.566 173.634 105.141 173.848 104.649C174.067 104.157 174.177 103.62 174.177 103.039C174.177 102.416 174.067 101.85 173.848 101.34C173.634 100.83 173.329 100.391 172.931 100.023C172.528 99.6611 172.042 99.3794 171.472 99.1777C170.903 98.9701 170.265 98.8663 169.56 98.8663H165.129V111.82H167.629V107.069ZM167.629 105.041V100.895H169.56C169.915 100.895 170.224 100.951 170.485 101.064C170.746 101.177 170.965 101.331 171.143 101.526C171.315 101.722 171.443 101.951 171.526 102.211C171.615 102.472 171.659 102.754 171.659 103.057C171.659 103.318 171.615 103.57 171.526 103.813C171.443 104.05 171.315 104.261 171.143 104.445C170.965 104.628 170.746 104.774 170.485 104.88C170.224 104.987 169.915 105.041 169.56 105.041H167.629ZM182.273 108.439C182.273 108.67 182.226 108.884 182.131 109.08C182.036 109.27 181.9 109.433 181.722 109.569C181.544 109.705 181.324 109.812 181.063 109.889C180.808 109.966 180.515 110.005 180.183 110.005C179.809 110.005 179.465 109.963 179.151 109.88C178.842 109.797 178.578 109.667 178.359 109.489C178.133 109.311 177.958 109.083 177.834 108.804C177.709 108.525 177.641 108.19 177.629 107.799H175.174C175.174 108.469 175.301 109.053 175.556 109.551C175.817 110.049 176.17 110.482 176.615 110.85C177.084 111.224 177.632 111.509 178.261 111.704C178.895 111.894 179.536 111.989 180.183 111.989C180.841 111.989 181.449 111.912 182.006 111.758C182.564 111.597 183.044 111.363 183.448 111.055C183.851 110.752 184.165 110.382 184.391 109.943C184.622 109.498 184.738 108.991 184.738 108.421C184.738 107.763 184.586 107.182 184.284 106.678C183.981 106.173 183.575 105.732 183.065 105.352C182.727 105.121 182.356 104.916 181.953 104.738C181.55 104.56 181.126 104.409 180.681 104.284C180.266 104.172 179.892 104.05 179.56 103.92C179.234 103.789 178.955 103.644 178.723 103.484C178.492 103.33 178.314 103.155 178.19 102.959C178.071 102.763 178.012 102.544 178.012 102.3C178.012 102.069 178.056 101.856 178.145 101.66C178.24 101.458 178.377 101.283 178.554 101.135C178.732 100.993 178.949 100.883 179.204 100.806C179.465 100.723 179.761 100.681 180.094 100.681C180.455 100.681 180.77 100.732 181.037 100.833C181.309 100.927 181.538 101.061 181.722 101.233C181.9 101.411 182.033 101.621 182.122 101.865C182.217 102.108 182.27 102.375 182.282 102.665H184.72C184.72 102.084 184.607 101.55 184.382 101.064C184.156 100.577 183.842 100.156 183.439 99.8005C183.035 99.4506 182.552 99.1777 181.989 98.982C181.431 98.7863 180.814 98.6884 180.138 98.6884C179.486 98.6884 178.881 98.7744 178.323 98.9464C177.766 99.1125 177.282 99.3527 176.873 99.667C176.464 99.9814 176.143 100.361 175.912 100.806C175.681 101.251 175.565 101.746 175.565 102.292C175.565 102.766 175.651 103.205 175.823 103.608C176.001 104.012 176.262 104.379 176.606 104.711C176.95 105.044 177.392 105.349 177.932 105.628C178.477 105.907 179.109 106.144 179.827 106.34C180.289 106.464 180.675 106.601 180.983 106.749C181.298 106.891 181.553 107.048 181.748 107.22C181.938 107.398 182.072 107.588 182.149 107.79C182.232 107.991 182.273 108.208 182.273 108.439Z" fill="#0E0E00"/>
<path d="M107.868 109.115L108.624 111.82H111.257L107.094 98.8663H104.825L100.581 111.82H103.215L103.98 109.115H107.868ZM104.594 106.989L105.955 102.22L107.281 106.989H104.594ZM120.048 106.144V104.169H114.728V100.904H120.92V98.8663H112.219V111.82H120.946V109.8H114.728V106.144H120.048ZM127.05 106.98L129.487 111.82H132.165V111.704L129.381 106.357C129.737 106.197 130.057 106.007 130.342 105.788C130.632 105.569 130.881 105.311 131.089 105.014C131.291 104.723 131.445 104.394 131.551 104.026C131.664 103.653 131.721 103.235 131.721 102.772C131.721 102.131 131.608 101.568 131.382 101.082C131.163 100.595 130.849 100.189 130.439 99.8628C130.024 99.5366 129.526 99.2904 128.945 99.1243C128.364 98.9523 127.714 98.8663 126.996 98.8663H122.655V111.82H125.155V106.98H127.05ZM125.155 104.952V100.895H126.996C127.34 100.895 127.646 100.936 127.913 101.019C128.18 101.102 128.405 101.221 128.589 101.375C128.796 101.547 128.951 101.767 129.052 102.034C129.158 102.295 129.212 102.597 129.212 102.941C129.212 103.226 129.17 103.484 129.087 103.715C129.01 103.946 128.894 104.145 128.74 104.311C128.556 104.519 128.316 104.679 128.02 104.792C127.729 104.898 127.391 104.952 127.005 104.952H125.155ZM142.272 106.295V104.409C142.272 103.822 142.216 103.267 142.103 102.745C141.997 102.223 141.839 101.743 141.632 101.304C141.442 100.919 141.214 100.566 140.947 100.245C140.686 99.925 140.38 99.6522 140.03 99.4268C139.68 99.1896 139.286 99.0087 138.847 98.8841C138.414 98.7536 137.949 98.6884 137.45 98.6884C136.958 98.6884 136.501 98.7507 136.08 98.8752C135.659 98.9998 135.28 99.1777 134.941 99.409C134.597 99.6463 134.292 99.931 134.025 100.263C133.764 100.595 133.542 100.966 133.358 101.375C133.168 101.808 133.023 102.28 132.922 102.79C132.827 103.3 132.78 103.84 132.78 104.409V106.295C132.78 106.829 132.821 107.336 132.904 107.816C132.993 108.297 133.121 108.742 133.287 109.151C133.471 109.596 133.699 109.996 133.972 110.352C134.245 110.702 134.553 111.001 134.897 111.251C135.247 111.488 135.635 111.672 136.062 111.802C136.49 111.933 136.955 111.998 137.459 111.998C137.934 111.998 138.376 111.939 138.785 111.82C139.2 111.707 139.58 111.547 139.924 111.339C140.303 111.102 140.641 110.806 140.938 110.45C141.234 110.094 141.484 109.702 141.685 109.275C141.875 108.848 142.02 108.386 142.121 107.888C142.222 107.383 142.272 106.853 142.272 106.295ZM139.737 104.391V106.295C139.737 106.615 139.719 106.924 139.683 107.22C139.654 107.517 139.606 107.79 139.541 108.039C139.458 108.359 139.345 108.647 139.203 108.902C139.067 109.151 138.898 109.358 138.696 109.525C138.536 109.661 138.352 109.765 138.144 109.836C137.937 109.907 137.708 109.943 137.459 109.943C137.198 109.943 136.964 109.904 136.756 109.827C136.555 109.75 136.374 109.64 136.214 109.498C136.042 109.338 135.89 109.13 135.76 108.875C135.635 108.614 135.541 108.326 135.475 108.012C135.416 107.763 135.374 107.493 135.351 107.203C135.327 106.912 135.315 106.609 135.315 106.295V104.391C135.315 104.059 135.327 103.742 135.351 103.439C135.38 103.137 135.425 102.858 135.484 102.603C135.561 102.271 135.668 101.98 135.804 101.731C135.947 101.482 136.119 101.274 136.32 101.108C136.469 100.996 136.635 100.91 136.819 100.85C137.008 100.791 137.219 100.761 137.45 100.761C137.694 100.761 137.913 100.794 138.109 100.859C138.31 100.924 138.491 101.016 138.651 101.135C138.853 101.295 139.028 101.503 139.176 101.758C139.325 102.007 139.443 102.292 139.532 102.612C139.603 102.867 139.654 103.146 139.683 103.448C139.719 103.745 139.737 104.059 139.737 104.391ZM146.881 98.8663H143.776V111.82H146.072V107.985L145.965 102.167L147.486 107.55H148.723L150.422 101.927L150.315 107.985V111.82H152.611V98.8663H149.506L148.109 103.733L146.881 98.8663ZM160.76 109.115L161.517 111.82H164.15L159.986 98.8663H157.718L153.474 111.82H156.107L156.873 109.115H160.76ZM157.486 106.989L158.848 102.22L160.173 106.989H157.486ZM167.629 107.069H169.56C170.265 107.069 170.903 106.968 171.472 106.767C172.042 106.565 172.528 106.283 172.931 105.921C173.329 105.566 173.634 105.141 173.848 104.649C174.067 104.157 174.177 103.62 174.177 103.039C174.177 102.416 174.067 101.85 173.848 101.34C173.634 100.83 173.329 100.391 172.931 100.023C172.528 99.6611 172.042 99.3794 171.472 99.1777C170.903 98.9701 170.265 98.8663 169.56 98.8663H165.129V111.82H167.629V107.069ZM167.629 105.041V100.895H169.56C169.915 100.895 170.224 100.951 170.485 101.064C170.746 101.177 170.965 101.331 171.143 101.526C171.315 101.722 171.443 101.951 171.526 102.211C171.615 102.472 171.659 102.754 171.659 103.057C171.659 103.318 171.615 103.57 171.526 103.813C171.443 104.05 171.315 104.261 171.143 104.445C170.965 104.628 170.746 104.774 170.485 104.88C170.224 104.987 169.915 105.041 169.56 105.041H167.629ZM182.273 108.439C182.273 108.67 182.226 108.884 182.131 109.08C182.036 109.27 181.9 109.433 181.722 109.569C181.544 109.705 181.324 109.812 181.063 109.889C180.808 109.966 180.515 110.005 180.183 110.005C179.809 110.005 179.465 109.963 179.151 109.88C178.842 109.797 178.578 109.667 178.359 109.489C178.133 109.311 177.958 109.083 177.834 108.804C177.709 108.525 177.641 108.19 177.629 107.799H175.174C175.174 108.469 175.301 109.053 175.556 109.551C175.817 110.049 176.17 110.482 176.615 110.85C177.084 111.224 177.632 111.509 178.261 111.704C178.895 111.894 179.536 111.989 180.183 111.989C180.841 111.989 181.449 111.912 182.006 111.758C182.564 111.597 183.044 111.363 183.448 111.055C183.851 110.752 184.165 110.382 184.391 109.943C184.622 109.498 184.738 108.991 184.738 108.421C184.738 107.763 184.586 107.182 184.284 106.678C183.981 106.173 183.575 105.732 183.065 105.352C182.727 105.121 182.356 104.916 181.953 104.738C181.55 104.56 181.126 104.409 180.681 104.284C180.266 104.172 179.892 104.05 179.56 103.92C179.234 103.789 178.955 103.644 178.723 103.484C178.492 103.33 178.314 103.155 178.19 102.959C178.071 102.763 178.012 102.544 178.012 102.3C178.012 102.069 178.056 101.856 178.145 101.66C178.24 101.458 178.377 101.283 178.554 101.135C178.732 100.993 178.949 100.883 179.204 100.806C179.465 100.723 179.761 100.681 180.094 100.681C180.455 100.681 180.77 100.732 181.037 100.833C181.309 100.927 181.538 101.061 181.722 101.233C181.9 101.411 182.033 101.621 182.122 101.865C182.217 102.108 182.27 102.375 182.282 102.665H184.72C184.72 102.084 184.607 101.55 184.382 101.064C184.156 100.577 183.842 100.156 183.439 99.8005C183.035 99.4506 182.552 99.1777 181.989 98.982C181.431 98.7863 180.814 98.6884 180.138 98.6884C179.486 98.6884 178.881 98.7744 178.323 98.9464C177.766 99.1125 177.282 99.3527 176.873 99.667C176.464 99.9814 176.143 100.361 175.912 100.806C175.681 101.251 175.565 101.746 175.565 102.292C175.565 102.766 175.651 103.205 175.823 103.608C176.001 104.012 176.262 104.379 176.606 104.711C176.95 105.044 177.392 105.349 177.932 105.628C178.477 105.907 179.109 106.144 179.827 106.34C180.289 106.464 180.675 106.601 180.983 106.749C181.298 106.891 181.553 107.048 181.748 107.22C181.938 107.398 182.072 107.588 182.149 107.79C182.232 107.991 182.273 108.208 182.273 108.439Z" fill="black" fill-opacity="0.2"/>
<defs>
<filter id="filter0_d_1_12" x="0.861225" y="0.873436" width="219.278" height="231.253" filterUnits="userSpaceOnUse" color-interpolation-filters="sRGB">
<feFlood flood-opacity="0" result="BackgroundImageFix"/>
<feColorMatrix in="SourceAlpha" type="matrix" values="0 0 0 0 0 0 0 0 0 0 0 0 0 0 0 0 0 0 127 0" result="hardAlpha"/>
<feOffset dy="1.01224"/>
<feGaussianBlur stdDeviation="0.506122"/>
<feComposite in2="hardAlpha" operator="out"/>
<feColorMatrix type="matrix" values="0 0 0 0 0 0 0 0 0 0 0 0 0 0 0 0 0 0 0.25 0"/>
<feBlend mode="normal" in2="BackgroundImageFix" result="effect1_dropShadow_1_12"/>
<feBlend mode="normal" in="SourceGraphic" in2="effect1_dropShadow_1_12" result="shape"/>
</filter>
</defs>
</svg>
